<?xml version="1.0" encoding="UTF-8" standalone="no"?>
<svg
   xmlns:dc="http://purl.org/dc/elements/1.1/"
   xmlns:cc="http://creativecommons.org/ns#"
   xmlns:rdf="http://www.w3.org/1999/02/22-rdf-syntax-ns#"
   xmlns:svg="http://www.w3.org/2000/svg"
   xmlns="http://www.w3.org/2000/svg"
   xmlns:sodipodi="http://sodipodi.sourceforge.net/DTD/sodipodi-0.dtd"
   xmlns:inkscape="http://www.inkscape.org/namespaces/inkscape"
   width="16"
   height="16"
   id="svg2"
   version="1.1"
   inkscape:version="0.48.3.1 r9886"
   sodipodi:docname="add-pdf.svg"
   inkscape:export-filename="/home/giuseppe/Immagini/Ardesia/add-pdf16.png"
   inkscape:export-xdpi="15"
   inkscape:export-ydpi="15">
  <metadata
     id="metadata13">
    <rdf:RDF>
      <cc:Work
         rdf:about="">
        <dc:format>image/svg+xml</dc:format>
        <dc:type
           rdf:resource="http://purl.org/dc/dcmitype/StillImage" />
        <dc:title />
      </cc:Work>
    </rdf:RDF>
  </metadata>
  <defs
     id="defs11" />
  <sodipodi:namedview
     pagecolor="#ffffff"
     bordercolor="#666666"
     borderopacity="1"
     objecttolerance="10"
     gridtolerance="10"
     guidetolerance="10"
     inkscape:pageopacity="0"
     inkscape:pageshadow="2"
     inkscape:window-width="1366"
     inkscape:window-height="722"
     id="namedview9"
     showgrid="false"
     inkscape:zoom="1.9555921"
     inkscape:cx="36.544468"
     inkscape:cy="-18.820742"
     inkscape:window-x="0"
     inkscape:window-y="0"
     inkscape:window-maximized="1"
     inkscape:current-layer="svg2" />
  <g
     id="g4"
     transform="matrix(0.12554109,0,0,0.12554109,-2.589101,-3.035464)"
     style="fill:#ff0000">
    <title
       id="title6">Layer 1</title>
    <path
       id="path900"
       d="m 84.7957,27.741716 c -3.191986,0.429879 -4.951955,1.67273 -6.487585,7.004529 -1.5356,5.331807 -0.224222,14.978063 1.710282,22.388653 0.800226,2.467284 1.850282,4.857497 2.777225,7.292828 -0.588446,3.6499 -1.294845,7.297438 -2.275537,10.880395 -3.752843,14.633927 -7.995357,29.340349 -14.278319,43.119779 -8.57316,4.09014 -16.914495,8.63414 -24.840746,13.85263 -4.777745,2.91751 -13.556852,11.16241 -5.637951,15.6468 4.446094,2.59004 9.11049,2.13206 13.359484,0.15738 2.124497,-0.98736 4.135073,-2.38079 5.976961,-3.91754 1.841828,-1.53678 3.528429,-3.22664 4.932066,-4.91832 4.326083,-5.32291 8.0533,-11.02013 11.345809,-16.97701 12.83825,-5.58965 26.080374,-10.26434 39.697361,-13.47312 5.61885,5.02062 13.88244,10.10703 21.0026,5.25793 7.11783,-3.14176 6.04377,-12.72468 -2.02899,-12.94213 -5.33988,-1.128133 -10.66156,-0.5327 -15.92471,0.59635 -2.2571,-2.658428 -4.34792,-5.512934 -6.27746,-8.186196 C 101.64238,83.392201 95.931016,72.960488 90.591627,62.338123 92.185861,52.67239 93.830895,41.922527 92.725818,34.910276 91.620741,27.898031 88.203509,27.282772 84.7957,27.741715 z m -1.141996,7.246656 c 0.881036,-1.893887 3.07029,0.149322 3.002234,2.696906 -0.06809,2.547574 -0.540072,8.247029 -2.365721,9.819796 C 82.989405,43.36257 82.772684,36.882261 83.653704,34.988372 z m 4.218885,41.156241 c 4.853448,9.977484 10.776499,19.429416 18.216881,27.618957 -2.2284,0.61435 -4.5022,1.19526 -6.700998,1.72757 -8.122945,2.48819 -16.090233,5.49751 -23.929321,8.8188 5.683617,-12.12229 9.494183,-25.096809 12.413438,-38.165326 z m 33.891761,30.871277 c 2.85176,0.006 5.1205,0.75947 4.52662,3.46183 -2.39655,-0.64223 -4.47704,-1.83744 -6.43752,-3.27983 0.64718,-0.0582 1.29673,-0.18336 1.9109,-0.182 z M 62.1588,126.49203 c -0.620742,1.15226 -1.121046,2.35581 -1.779425,3.4898 -4.165078,6.22401 -10.176913,14.03388 -18.329827,13.793 -2.355033,-6.86624 7.673415,-10.56112 12.36254,-13.59061 2.551342,-1.28867 5.160515,-2.46447 7.746712,-3.69219 z"
       inkscape:connector-curvature="0"
       style="fill:#ff0000;stroke:#ff0000;stroke-width:3.81544042;stroke-miterlimit:4;stroke-opacity:1;stroke-dasharray:none" />
  </g>
  <path
     style="fill:#ffffff;stroke:none"
     d="M 8.1026489,1.560268 C 7.878253,2.03838 8.3350979,3.266886 8.3868127,1.90758 8.3808799,1.673629 8.2675261,1.260072 8.1026489,1.560268 z"
     id="path3766"
     inkscape:connector-curvature="0"
     sodipodi:nodetypes="ccc" />
  <path
     style="fill:#ffffff;stroke:none"
     d="m 13.389584,10.64501 c 0.193492,-0.05539 0.439432,-0.07653 0.394426,-0.277798 -0.07649,-0.342043 -2.255266,0.181684 -0.394426,0.277798 z"
     id="path3768"
     inkscape:connector-curvature="0"
     sodipodi:nodetypes="csc" />
  <path
     style="fill:none;stroke:#000000;stroke-width:1.38309669;stroke-linecap:butt;stroke-linejoin:miter;stroke-miterlimit:4;stroke-opacity:1;stroke-dasharray:none"
     d="m -0.48170029,3.579782 c 5.77646879,0 5.77646879,0 5.77646879,0"
     id="path3756"
     inkscape:connector-curvature="0" />
  <path
     style="fill:none;stroke:#000000;stroke-width:1.38309669;stroke-linecap:butt;stroke-linejoin:miter;stroke-miterlimit:4;stroke-opacity:1;stroke-dasharray:none"
     d="m 2.4065341,0.691548 0,5.776468"
     id="path3758"
     inkscape:connector-curvature="0" />
</svg>
