<?xml version="1.0"?><svg width="170.66666666666666" height="170.66666666666666" xmlns="http://www.w3.org/2000/svg">

 <g>
  <title>Layer 1</title>
  <path transform="rotate(0.674952, 86.8301, 86.9941)" fill="#000000" id="path900" d="m85.743439,23.87871c-3.286285,0.482059 -5.086029,1.78504 -6.604767,7.301731c-1.518707,5.516699 -0.049255,15.447779 2.035583,23.06592c0.855148,2.534489 1.96698,4.986469 2.952408,7.486469c-0.562454,3.770847 -1.246567,7.540691 -2.21431,11.247272c-3.692078,15.13578 -7.888214,30.352264 -14.199677,44.637634c-8.790771,4.321815 -17.336975,9.108826 -25.44696,14.586304c-4.891266,3.066513 -13.843933,11.675125 -5.623657,16.203125c4.61618,2.616791 9.420441,2.08786 13.777924,0c2.178741,-1.043945 4.235077,-2.505249 6.115723,-4.112289c1.880585,-1.607071 3.599243,-3.370102 5.026093,-5.131577c4.396301,-5.541428 8.170517,-11.461548 11.493317,-17.644157c13.170624,-5.919884 26.768829,-10.901192 40.771393,-14.375435c5.855026,5.108902 14.438049,10.25351 21.721298,5.166725c7.30159,-3.32618 6.077637,-13.194839 -2.249466,-13.320999c-5.520081,-1.098434 -11.000443,-0.419785 -16.413986,0.808395c-2.359756,-2.71389 -4.550446,-5.631996 -6.572617,-8.365166c-6.520325,-10.373024 -12.536484,-21.0606 -18.171387,-31.949291c1.52652,-9.986462 3.092255,-21.091473 1.867538,-28.308931c-1.224716,-7.217451 -4.755966,-7.810381 -8.26445,-7.295731zm-1.089569,7.486469c0.885498,-1.963638 3.167831,0.11668 3.128601,2.74452c-0.039261,2.627831 -0.456726,8.510719 -2.32019,10.154701c-1.391693,-4.255859 -1.693893,-10.935581 -0.808411,-12.899221zm4.850388,42.388178c5.125977,10.229607 11.348526,19.904282 19.120377,28.258774c-2.290421,0.660576 -4.628052,1.287216 -6.888947,1.862839c-8.345978,2.664444 -16.525116,5.86438 -24.568268,9.384453c5.713562,-12.56929 9.485321,-25.994629 12.336838,-39.506065zm35.323486,31.422081c2.94075,-0.028099 5.289368,0.72094 4.709793,3.514771c-2.479065,-0.633141 -4.638947,-1.84034 -6.67807,-3.303886c0.666656,-0.067879 1.33493,-0.204834 1.968277,-0.210884zm-61.227371,20.807465c-0.626099,1.195717 -1.12738,2.442879 -1.792511,3.620216c-4.21933,6.468658 -10.32373,14.595062 -18.733765,14.445724c-2.511871,-7.051712 7.784363,-10.983627 12.582886,-14.164536c2.615234,-1.359833 5.291473,-2.603996 7.94339,-3.901405z"/>
 </g>
</svg>