<?xml version="1.0" encoding="UTF-8" standalone="no"?>
<!-- Created with Inkscape (http://www.inkscape.org/) -->

<svg
   xmlns:dc="http://purl.org/dc/elements/1.1/"
   xmlns:cc="http://creativecommons.org/ns#"
   xmlns:rdf="http://www.w3.org/1999/02/22-rdf-syntax-ns#"
   xmlns:svg="http://www.w3.org/2000/svg"
   xmlns="http://www.w3.org/2000/svg"
   xmlns:xlink="http://www.w3.org/1999/xlink"
   xmlns:sodipodi="http://sodipodi.sourceforge.net/DTD/sodipodi-0.dtd"
   xmlns:inkscape="http://www.inkscape.org/namespaces/inkscape"
   width="16"
   height="16"
   id="svg2"
   version="1.1"
   inkscape:version="0.48.3.1 r9886"
   sodipodi:docname="hand.svg"
   inkscape:export-filename="/home/giuseppe/Immagini/Ardesia/hand16.png"
   inkscape:export-xdpi="14.9"
   inkscape:export-ydpi="14.9">
  <defs
     id="defs4">
    <linearGradient
       id="linearGradient3806">
      <stop
         style="stop-color:#000000;stop-opacity:1;"
         offset="0"
         id="stop3808" />
      <stop
         style="stop-color:#ffffff;stop-opacity:1;"
         offset="1"
         id="stop3810" />
    </linearGradient>
    <linearGradient
       inkscape:collect="always"
       xlink:href="#linearGradient3806"
       id="linearGradient3841"
       x1="29.572346"
       y1="37.032345"
       x2="66.644691"
       y2="37.032345"
       gradientUnits="userSpaceOnUse" />
  </defs>
  <sodipodi:namedview
     id="base"
     pagecolor="#ffffff"
     bordercolor="#666666"
     borderopacity="1.0"
     inkscape:pageopacity="0.0"
     inkscape:pageshadow="2"
     inkscape:zoom="7.109375"
     inkscape:cx="-29.638793"
     inkscape:cy="30.874724"
     inkscape:document-units="px"
     inkscape:current-layer="layer1"
     showgrid="false"
     inkscape:window-width="1366"
     inkscape:window-height="722"
     inkscape:window-x="0"
     inkscape:window-y="0"
     inkscape:window-maximized="1" />
  <metadata
     id="metadata7">
    <rdf:RDF>
      <cc:Work
         rdf:about="">
        <dc:format>image/svg+xml</dc:format>
        <dc:type
           rdf:resource="http://purl.org/dc/dcmitype/StillImage" />
        <dc:title />
      </cc:Work>
    </rdf:RDF>
  </metadata>
  <g
     inkscape:label="Livello 1"
     inkscape:groupmode="layer"
     id="layer1"
     transform="translate(0,-1036.3622)">
    <path
       style="fill:#ffffff;stroke:none"
       d="m 4.3908871,1052.1515 -0.3835669,-1.6301 c 0,0 -2.2694375,-3.1005 -2.3333653,-3.2603 -0.063928,-0.1599 -0.92695342,-1.8859 -0.92695342,-2.0457 0,-0.1598 0.0319639,-1.0548 0.0319639,-1.0548 l 0.79909772,-0.5434 1.2465924,0.3196 1.2146287,1.4704 0.671242,0.7351 0.095892,-7.2877 1.2785563,-0.7991 0.8630255,0.2557 c 0,0 1.1187368,-1.1827 1.2465926,-1.2147 0.1278555,-0.032 1.4703396,0.2877 1.4703396,0.2877 l 0.4474948,1.1188 1.182665,-0.4475 1.118737,0.6712 0.383566,1.0548 1.406413,0 c 0,0 1.118736,0.8311 1.118736,1.0229 0,0.1917 0,2.1735 0,2.1735 0,0 -0.415531,2.653 -0.479458,2.8448 -0.06393,0.1918 -0.831062,2.2375 -0.831062,2.4292 0,0.1918 -0.415531,3.3882 -0.415531,3.3882 l -0.159819,0.5434 z"
       id="path2991"
       inkscape:connector-curvature="0" />
    <path
       style="fill:none;stroke:#000000;stroke-width:0.90701443;stroke-linecap:butt;stroke-linejoin:miter;stroke-miterlimit:4;stroke-opacity:1;stroke-dasharray:none"
       d="m 4.7179637,1046.5067 c -0.2665381,-0.3777 -0.7161357,-0.9752 -1.1348656,-1.6572 -0.5500117,-0.8958 -1.3249361,-1.7088 -2.2465344,-1.2374 -1.31527134,0.8453 -0.58324418,2.334 0.7117485,4.1022 1.4372514,1.9625 2.4525956,3.0933 2.3956995,4.4058 m 9.0067323,0 c -0.08347,-3.1738 2.013968,-6.9155 1.807621,-10.2809 0.249159,-2.5113 -2.253789,-2.6597 -2.694791,-1.6307"
       id="path3921"
       inkscape:connector-curvature="0"
       sodipodi:nodetypes="cscscccc" />
    <path
       style="fill:none;stroke:#000000;stroke-width:0.86172748;stroke-linecap:butt;stroke-linejoin:miter;stroke-miterlimit:4;stroke-opacity:1;stroke-dasharray:none"
       d="m 4.7221507,1046.7628 -0.062874,-7.5637 c 0.054652,-1.6753 2.6669852,-1.3865 2.4593101,0 l 0.032115,5.4967 0,1.0528"
       id="path3923"
       inkscape:connector-curvature="0"
       sodipodi:nodetypes="ccccc" />
    <path
       style="fill:none;stroke:#000000;stroke-width:0.87345302;stroke-linecap:butt;stroke-linejoin:miter;stroke-miterlimit:4;stroke-opacity:1;stroke-dasharray:none"
       d="m 7.1179031,1038.8627 c 0,0 -0.1241079,-1.7904 1.4392073,-1.8501 1.1733475,-0.045 1.3217096,0.5943 1.4245593,1.2558 l -0.069996,7.4374"
       id="path3925"
       inkscape:connector-curvature="0"
       sodipodi:nodetypes="cscc" />
    <path
       style="fill:none;stroke:#000000;stroke-width:0.84587914;stroke-linecap:butt;stroke-linejoin:miter;stroke-miterlimit:4;stroke-opacity:1;stroke-dasharray:none"
       d="m 9.8731841,1038.9455 c 0,0 0.8976049,-0.9326 1.4684649,-0.8485 0.671133,0.099 1.32433,0.4993 1.300567,1.4438 l -0.163465,6.4971"
       id="path3927"
       inkscape:connector-curvature="0"
       sodipodi:nodetypes="casc" />
    <path
       style="fill:none;stroke:#000000;stroke-width:0.8034268;stroke-linecap:butt;stroke-linejoin:miter;stroke-miterlimit:4;stroke-opacity:1;stroke-dasharray:none"
       d="m 9.9526073,1047.6766 c 0,2.621 0,2.621 0,2.621"
       id="path3872"
       inkscape:connector-curvature="0" />
  </g>
</svg>
