<?xml version="1.0" encoding="UTF-8" standalone="no"?>
<!-- Created with Inkscape (http://www.inkscape.org/) -->

<svg
   xmlns:dc="http://purl.org/dc/elements/1.1/"
   xmlns:cc="http://creativecommons.org/ns#"
   xmlns:rdf="http://www.w3.org/1999/02/22-rdf-syntax-ns#"
   xmlns:svg="http://www.w3.org/2000/svg"
   xmlns="http://www.w3.org/2000/svg"
   xmlns:xlink="http://www.w3.org/1999/xlink"
   xmlns:sodipodi="http://sodipodi.sourceforge.net/DTD/sodipodi-0.dtd"
   xmlns:inkscape="http://www.inkscape.org/namespaces/inkscape"
   width="16"
   height="16"
   id="svg2"
   version="1.1"
   inkscape:version="0.48.3.1 r9886"
   sodipodi:docname="hand.svg"
   inkscape:export-filename="/home/giuseppe/Immagini/Ardesia/hand16.png"
   inkscape:export-xdpi="14.89"
   inkscape:export-ydpi="14.89">
  <defs
     id="defs4">
    <linearGradient
       id="linearGradient3806">
      <stop
         style="stop-color:#000000;stop-opacity:1;"
         offset="0"
         id="stop3808" />
      <stop
         style="stop-color:#ffffff;stop-opacity:1;"
         offset="1"
         id="stop3810" />
    </linearGradient>
    <linearGradient
       inkscape:collect="always"
       xlink:href="#linearGradient3806"
       id="linearGradient3841"
       x1="29.572346"
       y1="37.032345"
       x2="66.644691"
       y2="37.032345"
       gradientUnits="userSpaceOnUse" />
  </defs>
  <sodipodi:namedview
     id="base"
     pagecolor="#ffffff"
     bordercolor="#666666"
     borderopacity="1.0"
     inkscape:pageopacity="0.0"
     inkscape:pageshadow="2"
     inkscape:zoom="28.4375"
     inkscape:cx="5.7846155"
     inkscape:cy="8.2224222"
     inkscape:document-units="px"
     inkscape:current-layer="layer1"
     showgrid="false"
     inkscape:window-width="1366"
     inkscape:window-height="722"
     inkscape:window-x="0"
     inkscape:window-y="0"
     inkscape:window-maximized="1"
     fit-margin-top="0"
     fit-margin-left="0"
     fit-margin-right="0"
     fit-margin-bottom="0" />
  <metadata
     id="metadata7">
    <rdf:RDF>
      <cc:Work
         rdf:about="">
        <dc:format>image/svg+xml</dc:format>
        <dc:type
           rdf:resource="http://purl.org/dc/dcmitype/StillImage" />
        <dc:title />
      </cc:Work>
    </rdf:RDF>
  </metadata>
  <g
     inkscape:label="Livello 1"
     inkscape:groupmode="layer"
     id="layer1"
     transform="translate(0.08875373,-1039.3075)">
    <path
       style="fill:none;stroke:#000000;stroke-width:0.92034674000000005;stroke-linecap:butt;stroke-linejoin:miter;stroke-miterlimit:4;stroke-opacity:1;stroke-dasharray:none;fill-opacity:1"
       d="m 4.5713143,1049.2386 c -0.2746711,-0.3775 -0.7379872,-0.9744 -1.1694937,-1.6557 -0.5667943,-0.8951 -1.3653639,-1.7074 -2.3150831,-1.2364 -1.35540409,0.8446 -0.60104058,2.3318 0.7334662,4.0986 1.4811062,1.9607 2.5274316,3.0906 2.4687995,4.402 m 9.2815548,0 c -0.08601,-3.1709 2.07542,-6.9094 1.862776,-10.2719 0.256762,-2.5091 -2.322558,-2.6574 -2.777016,-1.6292"
       id="path3921"
       inkscape:connector-curvature="0"
       sodipodi:nodetypes="cscscccc" />
    <path
       style="fill:none;stroke:#000000;stroke-width:0.87439412000000005;stroke-linecap:butt;stroke-linejoin:miter;stroke-miterlimit:4;stroke-opacity:1;stroke-dasharray:none;fill-opacity:1"
       d="m 4.575629,1049.4944 -0.064792,-7.557 c 0.056319,-1.6739 2.748363,-1.3854 2.5343513,0 l 0.033095,5.4919 0,1.0518"
       id="path3923"
       inkscape:connector-curvature="0"
       sodipodi:nodetypes="ccccc" />
    <path
       style="fill:none;stroke:#000000;stroke-width:0.88629203999999984;stroke-linecap:butt;stroke-linejoin:miter;stroke-miterlimit:4;stroke-opacity:1;stroke-dasharray:none;fill-opacity:1"
       d="m 7.044483,1041.6012 c 0,0 -0.1278948,-1.7889 1.4831219,-1.8485 1.2091496,-0.045 1.3620388,0.5938 1.4680273,1.2548 l -0.072134,7.4308"
       id="path3925"
       inkscape:connector-curvature="0"
       sodipodi:nodetypes="cscc" />
    <path
       style="fill:none;stroke:#000000;stroke-width:0.85831285000000002;stroke-linecap:butt;stroke-linejoin:miter;stroke-miterlimit:4;stroke-opacity:1;stroke-dasharray:none;fill-opacity:1"
       d="m 9.8838355,1041.6839 c 0,0 0.9249935,-0.9318 1.5132725,-0.8478 0.691611,0.099 1.364739,0.4989 1.34025,1.4426 l -0.168451,6.4915"
       id="path3927"
       inkscape:connector-curvature="0"
       sodipodi:nodetypes="casc" />
    <path
       style="fill:none;stroke:#000000;stroke-width:0.81523645000000000;stroke-linecap:butt;stroke-linejoin:miter;stroke-miterlimit:4;stroke-opacity:1;stroke-dasharray:none;fill-opacity:1"
       d="m 9.9656831,1050.4075 c 0,2.6187 0,2.6187 0,2.6187"
       id="path3872"
       inkscape:connector-curvature="0" />
    <path
       style="fill:none;stroke:#000000;stroke-width:0.1;stroke-linecap:butt;stroke-linejoin:miter;stroke-opacity:1;stroke-miterlimit:4;stroke-dasharray:none"
       d="m 3.9384615,15.507692 c 5.0637363,-0.03517 9.3890105,-0.03517 9.3890105,-0.03517"
       id="path3844"
       inkscape:connector-curvature="0"
       transform="translate(-0.08875373,1039.3075)" />
    <path
       style="fill:#cc0000;fill-opacity:0;fill-rule:evenodd;stroke:#ffffff;stroke-width:0.00351648000000000;stroke-miterlimit:4;stroke-opacity:1;stroke-dasharray:none"
       d="m 4.8599799,15.386589 c -0.012949,-0.03375 -0.023545,-0.130289 -0.023545,-0.21454 0,-0.380844 -0.2047965,-0.969753 -0.5381907,-1.547611 C 3.9743807,13.063099 3.7734696,12.783195 2.4437992,11.040875 1.3024854,9.5453654 0.82083211,8.5643653 0.9650023,8.0289582 1.086359,7.5782741 1.5685777,7.2857449 1.9602515,7.4252086 2.3246058,7.5549447 2.667882,7.9188111 3.2812948,8.8254899 c 0.2289859,0.3384616 0.5301509,0.7686207 0.6692557,0.9559093 0.1391048,0.1872883 0.2529178,0.3560798 0.2529178,0.3750918 0,0.05455 0.042999,0.05868 0.4916438,0.04715 L 5.117754,10.192783 5.1168678,9.7113343 C 5.1163826,9.4465375 5.1010394,7.7528095 5.0827755,5.9474943 5.0587277,3.5704944 5.060282,2.6150821 5.0884096,2.483758 5.1862822,2.0268093 5.7704759,1.8079794 6.3129888,2.0250499 c 0.1399314,0.055989 0.351015,0.2592939 0.3531397,0.3401252 6.189e-4,0.023503 0.00638,0.2405346 0.012808,0.4822929 0.00643,0.2417582 0.013833,1.7648351 0.016459,3.3846153 l 0.00478,2.945055 0.4612975,0 0.4612973,0 L 7.6113498,5.5287866 7.5999331,1.880435 7.677147,1.6488699 C 7.7802254,1.339738 7.9145663,1.163759 8.1446414,1.036479 8.3254871,0.93643325 8.3562236,0.93098446 8.739732,0.93098446 c 0.3446991,0 0.422561,0.0106713 0.5274528,0.0722892 0.1492582,0.087681 0.2559814,0.2688086 0.31575,0.5358829 0.044957,0.2008882 0.037681,2.294963 -0.021437,6.1698498 l -0.021862,1.432967 0.4560513,0 0.4560519,0 0.02301,-0.6065934 c 0.01266,-0.3336263 0.02306,-1.0747622 0.02312,-1.6469689 7e-5,-0.5722064 0.01059,-1.8017843 0.02341,-2.7323953 l 0.0233,-1.6920201 0.19648,-0.1470914 c 0.108064,-0.0809 0.294834,-0.1936567 0.415044,-0.2505699 0.205777,-0.097424 0.229678,-0.1011713 0.408493,-0.064049 0.254777,0.052891 0.542109,0.2311653 0.672673,0.417357 0.103643,0.1478008 0.107162,0.1658181 0.11677,0.5978022 0.0054,0.2449746 -0.02437,1.7870144 -0.06627,3.4267548 -0.0419,1.6397409 -0.06809,2.9894337 -0.05821,2.9993178 0.0099,0.00988 0.207669,0.027509 0.439522,0.039167 l 0.421552,0.021196 0.02198,-0.4886453 c 0.01209,-0.2687546 0.04781,-1.5646888 0.07939,-2.8798537 0.05671,-2.3621264 0.05832,-2.3919585 0.132241,-2.4528565 0.128844,-0.1061385 0.43393,-0.177798 0.649232,-0.1524936 0.499003,0.058648 0.864509,0.3691379 1.012301,0.8599303 0.04976,0.1652338 0.05937,0.3501112 0.05784,1.1124528 -0.003,1.509229 -0.134201,2.2438745 -0.85389,4.7824178 -0.727237,2.565169 -0.915666,3.462004 -1.002961,4.773626 l -0.02282,0.342857 -1.45025,0 c -0.797637,0 -2.6607304,0.01049 -4.1402064,0.02332 -2.5387808,0.02201 -2.6912802,0.01987 -2.7135019,-0.03804 l 0,0 z m 5.6028291,-2.974286 0,-1.336264 -0.421978,0 -0.4219781,0 0,1.336264 0,1.336264 0.4219781,0 0.421978,0 0,-1.336264 z"
       id="path3846"
       inkscape:connector-curvature="0"
       transform="translate(-0.08875373,1039.3075)" />
    <path
       style="fill:#cc0000;fill-opacity:0;fill-rule:evenodd;stroke:#ffffff;stroke-width:0.00351648;stroke-miterlimit:4;stroke-opacity:1;stroke-dasharray:none"
       d="m 4.8599799,15.386589 c -0.012949,-0.03375 -0.023545,-0.130289 -0.023545,-0.21454 0,-0.380844 -0.2047965,-0.969753 -0.5381907,-1.547611 C 3.9743807,13.063099 3.7734696,12.783195 2.4437992,11.040875 1.3024854,9.5453654 0.82083211,8.5643653 0.9650023,8.0289582 1.086359,7.5782741 1.5685777,7.2857449 1.9602515,7.4252086 2.3246058,7.5549447 2.667882,7.9188111 3.2812948,8.8254899 c 0.2289859,0.3384616 0.5301509,0.7686207 0.6692557,0.9559093 0.1391048,0.1872883 0.2529178,0.3560798 0.2529178,0.3750918 0,0.05455 0.042999,0.05868 0.4916438,0.04715 L 5.117754,10.192783 5.1168678,9.7113343 C 5.1163826,9.4465375 5.1010394,7.7528095 5.0827755,5.9474943 5.0587277,3.5704944 5.060282,2.6150821 5.0884096,2.483758 5.1862822,2.0268093 5.7704759,1.8079794 6.3129888,2.0250499 c 0.1399314,0.055989 0.351015,0.2592939 0.3531397,0.3401252 6.189e-4,0.023503 0.00638,0.2405346 0.012808,0.4822929 0.00643,0.2417582 0.013833,1.7648351 0.016459,3.3846153 l 0.00478,2.945055 0.4612975,0 0.4612973,0 L 7.6113498,5.5287866 7.5999331,1.880435 7.677147,1.6488699 C 7.7802254,1.339738 7.9145663,1.163759 8.1446414,1.036479 8.3254871,0.93643325 8.3562236,0.93098446 8.739732,0.93098446 c 0.3446991,0 0.422561,0.0106713 0.5274528,0.0722892 0.1492582,0.087681 0.2559814,0.2688086 0.31575,0.5358829 0.044957,0.2008882 0.037681,2.294963 -0.021437,6.1698498 l -0.021862,1.432967 0.4560513,0 0.4560519,0 0.02301,-0.6065934 c 0.01266,-0.3336263 0.02306,-1.0747622 0.02312,-1.6469689 7e-5,-0.5722064 0.01059,-1.8017843 0.02341,-2.7323953 l 0.0233,-1.6920201 0.19648,-0.1470914 c 0.108064,-0.0809 0.294834,-0.1936567 0.415044,-0.2505699 0.205777,-0.097424 0.229678,-0.1011713 0.408493,-0.064049 0.254777,0.052891 0.542109,0.2311653 0.672673,0.417357 0.103643,0.1478008 0.107162,0.1658181 0.11677,0.5978022 0.0054,0.2449746 -0.02437,1.7870144 -0.06627,3.4267548 -0.0419,1.6397409 -0.06809,2.9894337 -0.05821,2.9993178 0.0099,0.00988 0.207669,0.027509 0.439522,0.039167 l 0.421552,0.021196 0.02198,-0.4886453 c 0.01209,-0.2687546 0.04781,-1.5646888 0.07939,-2.8798537 0.05671,-2.3621264 0.05832,-2.3919585 0.132241,-2.4528565 0.128844,-0.1061385 0.43393,-0.177798 0.649232,-0.1524936 0.499003,0.058648 0.864509,0.3691379 1.012301,0.8599303 0.04976,0.1652338 0.05937,0.3501112 0.05784,1.1124528 -0.003,1.509229 -0.134201,2.2438745 -0.85389,4.7824178 -0.727237,2.565169 -0.915666,3.462004 -1.002961,4.773626 l -0.02282,0.342857 -1.45025,0 c -0.797637,0 -2.6607304,0.01049 -4.1402064,0.02332 -2.5387808,0.02201 -2.6912802,0.01987 -2.7135019,-0.03804 l 0,0 z m 5.6028291,-2.974286 0,-1.336264 -0.421978,0 -0.4219781,0 0,1.336264 0,1.336264 0.4219781,0 0.421978,0 0,-1.336264 z"
       id="path3848"
       inkscape:connector-curvature="0"
       transform="translate(-0.08875373,1039.3075)" />
    <path
       style="fill:#cc0000;fill-opacity:0;fill-rule:evenodd;stroke:#ffffff;stroke-width:0.00351648;stroke-miterlimit:4;stroke-opacity:1;stroke-dasharray:none"
       d="m 4.8599799,15.386589 c -0.012949,-0.03375 -0.023545,-0.130289 -0.023545,-0.21454 0,-0.380844 -0.2047965,-0.969753 -0.5381907,-1.547611 C 3.9743807,13.063099 3.7734696,12.783195 2.4437992,11.040875 1.3024854,9.5453654 0.82083211,8.5643653 0.9650023,8.0289582 1.086359,7.5782741 1.5685777,7.2857449 1.9602515,7.4252086 2.3246058,7.5549447 2.667882,7.9188111 3.2812948,8.8254899 c 0.2289859,0.3384616 0.5301509,0.7686207 0.6692557,0.9559093 0.1391048,0.1872883 0.2529178,0.3560798 0.2529178,0.3750918 0,0.05455 0.042999,0.05868 0.4916438,0.04715 L 5.117754,10.192783 5.1168678,9.7113343 C 5.1163826,9.4465375 5.1010394,7.7528095 5.0827755,5.9474943 5.0587277,3.5704944 5.060282,2.6150821 5.0884096,2.483758 5.1862822,2.0268093 5.7704759,1.8079794 6.3129888,2.0250499 c 0.1399314,0.055989 0.351015,0.2592939 0.3531397,0.3401252 6.189e-4,0.023503 0.00638,0.2405346 0.012808,0.4822929 0.00643,0.2417582 0.013833,1.7648351 0.016459,3.3846153 l 0.00478,2.945055 0.4612975,0 0.4612973,0 L 7.6113498,5.5287866 7.5999331,1.880435 7.677147,1.6488699 C 7.7802254,1.339738 7.9145663,1.163759 8.1446414,1.036479 8.3254871,0.93643325 8.3562236,0.93098446 8.739732,0.93098446 c 0.3446991,0 0.422561,0.0106713 0.5274528,0.0722892 0.1492582,0.087681 0.2559814,0.2688086 0.31575,0.5358829 0.044957,0.2008882 0.037681,2.294963 -0.021437,6.1698498 l -0.021862,1.432967 0.4560513,0 0.4560519,0 0.02301,-0.6065934 c 0.01266,-0.3336263 0.02306,-1.0747622 0.02312,-1.6469689 7e-5,-0.5722064 0.01059,-1.8017843 0.02341,-2.7323953 l 0.0233,-1.6920201 0.19648,-0.1470914 c 0.108064,-0.0809 0.294834,-0.1936567 0.415044,-0.2505699 0.205777,-0.097424 0.229678,-0.1011713 0.408493,-0.064049 0.254777,0.052891 0.542109,0.2311653 0.672673,0.417357 0.103643,0.1478008 0.107162,0.1658181 0.11677,0.5978022 0.0054,0.2449746 -0.02437,1.7870144 -0.06627,3.4267548 -0.0419,1.6397409 -0.06809,2.9894337 -0.05821,2.9993178 0.0099,0.00988 0.207669,0.027509 0.439522,0.039167 l 0.421552,0.021196 0.02198,-0.4886453 c 0.01209,-0.2687546 0.04781,-1.5646888 0.07939,-2.8798537 0.05671,-2.3621264 0.05832,-2.3919585 0.132241,-2.4528565 0.128844,-0.1061385 0.43393,-0.177798 0.649232,-0.1524936 0.499003,0.058648 0.864509,0.3691379 1.012301,0.8599303 0.04976,0.1652338 0.05937,0.3501112 0.05784,1.1124528 -0.003,1.509229 -0.134201,2.2438745 -0.85389,4.7824178 -0.727237,2.565169 -0.915666,3.462004 -1.002961,4.773626 l -0.02282,0.342857 -1.45025,0 c -0.797637,0 -2.6607304,0.01049 -4.1402064,0.02332 -2.5387808,0.02201 -2.6912802,0.01987 -2.7135019,-0.03804 l 0,0 z m 5.6028291,-2.974286 0,-1.336264 -0.421978,0 -0.4219781,0 0,1.336264 0,1.336264 0.4219781,0 0.421978,0 0,-1.336264 z"
       id="path3850"
       inkscape:connector-curvature="0"
       transform="translate(-0.08875373,1039.3075)" />
    <path
       style="fill:#cc0000;fill-opacity:0;fill-rule:evenodd;stroke:#ffffff;stroke-width:0.00351648;stroke-miterlimit:4;stroke-opacity:1;stroke-dasharray:none"
       d="m 4.8599799,15.386589 c -0.012949,-0.03375 -0.023545,-0.130289 -0.023545,-0.21454 0,-0.380844 -0.2047965,-0.969753 -0.5381907,-1.547611 C 3.9743807,13.063099 3.7734696,12.783195 2.4437992,11.040875 1.3024854,9.5453654 0.82083211,8.5643653 0.9650023,8.0289582 1.086359,7.5782741 1.5685777,7.2857449 1.9602515,7.4252086 2.3246058,7.5549447 2.667882,7.9188111 3.2812948,8.8254899 c 0.2289859,0.3384616 0.5301509,0.7686207 0.6692557,0.9559093 0.1391048,0.1872883 0.2529178,0.3560798 0.2529178,0.3750918 0,0.05455 0.042999,0.05868 0.4916438,0.04715 L 5.117754,10.192783 5.1168678,9.7113343 C 5.1163826,9.4465375 5.1010394,7.7528095 5.0827755,5.9474943 5.0587277,3.5704944 5.060282,2.6150821 5.0884096,2.483758 5.1862822,2.0268093 5.7704759,1.8079794 6.3129888,2.0250499 c 0.1399314,0.055989 0.351015,0.2592939 0.3531397,0.3401252 6.189e-4,0.023503 0.00638,0.2405346 0.012808,0.4822929 0.00643,0.2417582 0.013833,1.7648351 0.016459,3.3846153 l 0.00478,2.945055 0.4612975,0 0.4612973,0 L 7.6113498,5.5287866 7.5999331,1.880435 7.677147,1.6488699 C 7.7802254,1.339738 7.9145663,1.163759 8.1446414,1.036479 8.3254871,0.93643325 8.3562236,0.93098446 8.739732,0.93098446 c 0.3446991,0 0.422561,0.0106713 0.5274528,0.0722892 0.1492582,0.087681 0.2559814,0.2688086 0.31575,0.5358829 0.044957,0.2008882 0.037681,2.294963 -0.021437,6.1698498 l -0.021862,1.432967 0.4560513,0 0.4560519,0 0.02301,-0.6065934 c 0.01266,-0.3336263 0.02306,-1.0747622 0.02312,-1.6469689 7e-5,-0.5722064 0.01059,-1.8017843 0.02341,-2.7323953 l 0.0233,-1.6920201 0.19648,-0.1470914 c 0.108064,-0.0809 0.294834,-0.1936567 0.415044,-0.2505699 0.205777,-0.097424 0.229678,-0.1011713 0.408493,-0.064049 0.254777,0.052891 0.542109,0.2311653 0.672673,0.417357 0.103643,0.1478008 0.107162,0.1658181 0.11677,0.5978022 0.0054,0.2449746 -0.02437,1.7870144 -0.06627,3.4267548 -0.0419,1.6397409 -0.06809,2.9894337 -0.05821,2.9993178 0.0099,0.00988 0.207669,0.027509 0.439522,0.039167 l 0.421552,0.021196 0.02198,-0.4886453 c 0.01209,-0.2687546 0.04781,-1.5646888 0.07939,-2.8798537 0.05671,-2.3621264 0.05832,-2.3919585 0.132241,-2.4528565 0.128844,-0.1061385 0.43393,-0.177798 0.649232,-0.1524936 0.499003,0.058648 0.864509,0.3691379 1.012301,0.8599303 0.04976,0.1652338 0.05937,0.3501112 0.05784,1.1124528 -0.003,1.509229 -0.134201,2.2438745 -0.85389,4.7824178 -0.727237,2.565169 -0.915666,3.462004 -1.002961,4.773626 l -0.02282,0.342857 -1.45025,0 c -0.797637,0 -2.6607304,0.01049 -4.1402064,0.02332 -2.5387808,0.02201 -2.6912802,0.01987 -2.7135019,-0.03804 l 0,0 z m 5.6028291,-2.974286 0,-1.336264 -0.421978,0 -0.4219781,0 0,1.336264 0,1.336264 0.4219781,0 0.421978,0 0,-1.336264 z"
       id="path3852"
       inkscape:connector-curvature="0"
       transform="translate(-0.08875373,1039.3075)" />
    <path
       style="fill:#cc0000;fill-opacity:0;fill-rule:evenodd;stroke:#ffffff;stroke-width:0.00351648;stroke-miterlimit:4;stroke-opacity:1;stroke-dasharray:none"
       d="m 4.8599799,15.386589 c -0.012949,-0.03375 -0.023545,-0.130289 -0.023545,-0.21454 0,-0.380844 -0.2047965,-0.969753 -0.5381907,-1.547611 C 3.9743807,13.063099 3.7734696,12.783195 2.4437992,11.040875 1.3024854,9.5453654 0.82083211,8.5643653 0.9650023,8.0289582 1.086359,7.5782741 1.5685777,7.2857449 1.9602515,7.4252086 2.3246058,7.5549447 2.667882,7.9188111 3.2812948,8.8254899 c 0.2289859,0.3384616 0.5301509,0.7686207 0.6692557,0.9559093 0.1391048,0.1872883 0.2529178,0.3560798 0.2529178,0.3750918 0,0.05455 0.042999,0.05868 0.4916438,0.04715 L 5.117754,10.192783 5.1168678,9.7113343 C 5.1163826,9.4465375 5.1010394,7.7528095 5.0827755,5.9474943 5.0587277,3.5704944 5.060282,2.6150821 5.0884096,2.483758 5.1862822,2.0268093 5.7704759,1.8079794 6.3129888,2.0250499 c 0.1399314,0.055989 0.351015,0.2592939 0.3531397,0.3401252 6.189e-4,0.023503 0.00638,0.2405346 0.012808,0.4822929 0.00643,0.2417582 0.013833,1.7648351 0.016459,3.3846153 l 0.00478,2.945055 0.4612975,0 0.4612973,0 L 7.6113498,5.5287866 7.5999331,1.880435 7.677147,1.6488699 C 7.7802254,1.339738 7.9145663,1.163759 8.1446414,1.036479 8.3254871,0.93643325 8.3562236,0.93098446 8.739732,0.93098446 c 0.3446991,0 0.422561,0.0106713 0.5274528,0.0722892 0.1492582,0.087681 0.2559814,0.2688086 0.31575,0.5358829 0.044957,0.2008882 0.037681,2.294963 -0.021437,6.1698498 l -0.021862,1.432967 0.4560513,0 0.4560519,0 0.02301,-0.6065934 c 0.01266,-0.3336263 0.02306,-1.0747622 0.02312,-1.6469689 7e-5,-0.5722064 0.01059,-1.8017843 0.02341,-2.7323953 l 0.0233,-1.6920201 0.19648,-0.1470914 c 0.108064,-0.0809 0.294834,-0.1936567 0.415044,-0.2505699 0.205777,-0.097424 0.229678,-0.1011713 0.408493,-0.064049 0.254777,0.052891 0.542109,0.2311653 0.672673,0.417357 0.103643,0.1478008 0.107162,0.1658181 0.11677,0.5978022 0.0054,0.2449746 -0.02437,1.7870144 -0.06627,3.4267548 -0.0419,1.6397409 -0.06809,2.9894337 -0.05821,2.9993178 0.0099,0.00988 0.207669,0.027509 0.439522,0.039167 l 0.421552,0.021196 0.02198,-0.4886453 c 0.01209,-0.2687546 0.04781,-1.5646888 0.07939,-2.8798537 0.05671,-2.3621264 0.05832,-2.3919585 0.132241,-2.4528565 0.128844,-0.1061385 0.43393,-0.177798 0.649232,-0.1524936 0.499003,0.058648 0.864509,0.3691379 1.012301,0.8599303 0.04976,0.1652338 0.05937,0.3501112 0.05784,1.1124528 -0.003,1.509229 -0.134201,2.2438745 -0.85389,4.7824178 -0.727237,2.565169 -0.915666,3.462004 -1.002961,4.773626 l -0.02282,0.342857 -1.45025,0 c -0.797637,0 -2.6607304,0.01049 -4.1402064,0.02332 -2.5387808,0.02201 -2.6912802,0.01987 -2.7135019,-0.03804 l 0,0 z m 5.6028291,-2.974286 0,-1.336264 -0.421978,0 -0.4219781,0 0,1.336264 0,1.336264 0.4219781,0 0.421978,0 0,-1.336264 z"
       id="path3854"
       inkscape:connector-curvature="0"
       transform="translate(-0.08875373,1039.3075)" />
    <path
       style="fill:#cc0000;fill-opacity:0;fill-rule:evenodd;stroke:#ffffff;stroke-width:0.00351648;stroke-miterlimit:4;stroke-opacity:1;stroke-dasharray:none"
       d="m 4.8599806,15.38659 c -0.01295,-0.03375 -0.023545,-0.13029 -0.023545,-0.214541 0,-0.08425 -0.0249,-0.260552 -0.055334,-0.39178 C 4.6157819,14.067426 4.2336862,13.402023 3.2226955,12.066374 2.9981645,11.76974 2.6047871,11.24971 2.3485236,10.910753 1.2703376,9.484646 0.82359463,8.5541064 0.9650023,8.0289582 1.086359,7.5782741 1.5685777,7.2857449 1.9602515,7.4252086 2.3246058,7.5549447 2.667882,7.9188111 3.2812948,8.8254899 c 0.2289859,0.3384616 0.5301509,0.7686207 0.6692557,0.9559093 0.1391048,0.1872883 0.2529178,0.3560798 0.2529178,0.3750918 0,0.05455 0.042999,0.05868 0.4916438,0.04715 L 5.117754,10.192783 5.1168678,9.7113343 C 5.1163826,9.4465375 5.1010394,7.7528095 5.0827755,5.9474943 5.0587277,3.5704944 5.060282,2.6150821 5.0884096,2.483758 5.1862822,2.0268093 5.7704759,1.8079794 6.3129888,2.0250499 6.4649979,2.085872 6.6633445,2.2858692 6.667744,2.3827575 6.681214,2.6793887 6.687501,3.6117249 6.693346,6.1793361 l 0.00683,2.9978022 0.4623655,0 0.4623652,0 -0.019112,-3.4845106 C 7.5952791,3.776147 7.6000759,2.1014232 7.6164501,1.9710195 7.7121339,1.2089878 8.0815567,0.88699277 8.8229443,0.91941851 c 0.4934544,0.021582 0.6557327,0.15386569 0.75993,0.61946819 0.044876,0.2005254 0.037405,2.3751047 -0.021258,6.1877021 l -0.021778,1.4153846 0.4559356,0 0.4559361,0 0.02313,-0.6386043 c 0.01272,-0.3512323 0.02313,-1.0923681 0.02313,-1.6469686 0,-0.5546008 0.01049,-1.7697737 0.0233,-2.7003847 l 0.0233,-1.6920201 0.19648,-0.1470914 c 0.108064,-0.0809 0.294834,-0.1936567 0.415044,-0.2505699 0.205777,-0.097424 0.229678,-0.1011713 0.408493,-0.064049 0.254777,0.052891 0.542109,0.2311653 0.672673,0.417357 0.10361,0.1477542 0.107171,0.1659541 0.116948,0.5978022 0.0055,0.2449746 -0.02425,1.7870383 -0.06622,3.4268079 -0.04197,1.6397697 -0.06824,2.9894629 -0.05839,2.9993178 0.0099,0.00985 0.207616,0.027456 0.439469,0.039114 l 0.421552,0.021196 0.02198,-0.4886453 c 0.01209,-0.2687546 0.04781,-1.5646888 0.07939,-2.8798537 0.05671,-2.3622413 0.05831,-2.3919532 0.132241,-2.4526617 0.09641,-0.079168 0.385629,-0.1671185 0.549561,-0.1671185 0.335821,0 0.742329,0.2178114 0.935921,0.5014775 0.211976,0.3106007 0.235943,0.462807 0.233889,1.4853357 -0.003,1.509229 -0.134201,2.2438745 -0.85389,4.7824177 -0.73616,2.596641 -0.906097,3.410591 -1.003988,4.808791 l -0.02154,0.307692 -1.429811,2.5e-5 c -0.786395,1.4e-5 -2.6495439,0.01051 -4.1403301,0.02332 -2.5583482,0.02198 -2.7118428,0.01985 -2.7340659,-0.03807 l 0,0 z m 5.6028284,-2.974287 0,-1.336264 -0.421978,0 -0.4219781,0 0,1.336264 0,1.336264 0.4219781,0 0.421978,0 0,-1.336264 z"
       id="path3856"
       inkscape:connector-curvature="0"
       transform="translate(-0.08875373,1039.3075)" />
    <path
       style="fill:#cc0000;fill-opacity:0;fill-rule:evenodd;stroke:#ffffff;stroke-width:0.00351648;stroke-miterlimit:4;stroke-opacity:1;stroke-dasharray:none"
       d="m 4.8599799,15.386589 c -0.012949,-0.03375 -0.023545,-0.130289 -0.023545,-0.21454 0,-0.380844 -0.2047965,-0.969753 -0.5381907,-1.547611 C 3.9737925,13.06208 3.8097917,12.833314 2.4965184,11.111204 1.2995089,9.5415522 0.81841729,8.5733334 0.9650023,8.0289582 1.0843374,7.5857814 1.5513111,7.2938694 1.9399578,7.4194992 2.3148742,7.540691 2.6356864,7.8763741 3.2695184,8.8106904 3.5067263,9.1603527 3.8139046,9.5969083 3.9521369,9.780814 c 0.1382322,0.1839058 0.2513314,0.351445 0.2513314,0.372309 0,0.05827 0.03797,0.06217 0.4916438,0.05052 L 5.117754,10.192783 5.1168678,9.7113343 C 5.1163826,9.4465375 5.1010394,7.7528095 5.0827755,5.9474943 5.0587277,3.5704944 5.060282,2.6150821 5.0884096,2.483758 5.1862822,2.0268093 5.7704759,1.8079794 6.3129888,2.0250499 c 0.1399314,0.055989 0.351015,0.2592939 0.3531397,0.3401252 6.189e-4,0.023503 0.00638,0.2405346 0.012808,0.4822929 0.00643,0.2417582 0.013833,1.7648351 0.016459,3.3846153 l 0.00478,2.945055 0.4612975,0 0.4612973,0 L 7.6113498,5.5287866 7.5999331,1.880435 7.677147,1.6488699 C 7.7814375,1.3361026 7.9258521,1.1467754 8.1503915,1.0284471 8.3214326,0.9383116 8.3657385,0.9309845 8.739732,0.9309845 c 0.3446991,0 0.422561,0.0106713 0.5274528,0.0722892 0.1492582,0.087681 0.2559814,0.2688086 0.31575,0.5358829 0.044957,0.2008882 0.037681,2.294963 -0.021437,6.1698498 l -0.021862,1.432967 0.4576517,0 0.4576515,0 0.02092,-0.8175824 c 0.01151,-0.4496703 0.0302,-1.949011 0.04153,-3.3318681 l 0.02061,-2.5142857 0.07669,-0.063944 c 0.161871,-0.1349725 0.539361,-0.3675969 0.660008,-0.4067238 0.269889,-0.087527 0.759081,0.1218957 0.962563,0.4120726 0.103643,0.1478008 0.107162,0.1658181 0.11677,0.5978022 0.0054,0.2449746 -0.02437,1.7870144 -0.06627,3.4267548 -0.0419,1.6397409 -0.06809,2.9894337 -0.05821,2.9993178 0.0099,0.00988 0.207669,0.027509 0.439522,0.039167 l 0.421552,0.021196 0.02198,-0.4886453 c 0.01209,-0.2687546 0.04781,-1.5646888 0.07939,-2.8798537 0.05671,-2.3621264 0.05832,-2.3919585 0.132241,-2.4528565 0.128844,-0.1061385 0.43393,-0.177798 0.649232,-0.1524936 0.498965,0.058644 0.864335,0.3689914 1.012389,0.8599303 0.04993,0.1655837 0.05938,0.3484982 0.05744,1.1124528 -0.0038,1.5140779 -0.134452,2.2458493 -0.853581,4.7824182 -0.727237,2.565169 -0.915666,3.462004 -1.002961,4.773626 l -0.02282,0.342857 -1.45025,0 c -0.797637,0 -2.6607304,0.01049 -4.1402064,0.02332 -2.5387808,0.02201 -2.6912802,0.01987 -2.7135019,-0.03804 l 0,0 z m 5.6028291,-2.974286 0,-1.336264 -0.421978,0 -0.4219781,0 0,1.336264 0,1.336264 0.4219781,0 0.421978,0 0,-1.336264 z"
       id="path3858"
       inkscape:connector-curvature="0"
       transform="translate(-0.08875373,1039.3075)" />
    <path
       style="fill:none;fill-opacity:0;fill-rule:evenodd;stroke:#ffffff;stroke-width:0.00351648000000000;stroke-miterlimit:4;stroke-opacity:1;stroke-dasharray:none"
       d="m 4.8599799,15.386589 c -0.012949,-0.03375 -0.023545,-0.130289 -0.023545,-0.21454 0,-0.380844 -0.2047965,-0.969753 -0.5381907,-1.547611 C 3.9737925,13.06208 3.8097917,12.833314 2.4965184,11.111204 1.2995089,9.5415522 0.81841729,8.5733334 0.9650023,8.0289582 1.0494318,7.715411 1.3614245,7.4254006 1.6492043,7.3929639 2.0981631,7.3423596 2.5280506,7.7066704 3.1943574,8.702413 c 0.1941287,0.2901099 0.5005949,0.7286491 0.681036,0.9745319 0.1804412,0.2458823 0.3280749,0.4621461 0.3280749,0.4805861 0,0.05341 0.044658,0.05759 0.4916438,0.04611 L 5.117754,10.192783 5.1168678,9.7113343 C 5.1163826,9.4465375 5.1010394,7.7528095 5.0827755,5.9474943 5.0587277,3.5704944 5.060282,2.6150821 5.0884096,2.483758 5.1862822,2.0268093 5.7704759,1.8079794 6.3129888,2.0250499 c 0.1399314,0.055989 0.351015,0.2592939 0.3531397,0.3401252 6.189e-4,0.023503 0.00638,0.2405346 0.012808,0.4822929 0.00643,0.2417582 0.013833,1.7648351 0.016459,3.3846153 l 0.00478,2.945055 0.4612975,0 0.4612973,0 L 7.6113498,5.5287866 7.5999331,1.880435 7.677147,1.6488699 C 7.7802254,1.339738 7.9145663,1.163759 8.1446414,1.036479 8.3254871,0.93643325 8.3562236,0.93098446 8.739732,0.93098446 c 0.3446991,0 0.422561,0.0106713 0.5274528,0.0722892 0.1492582,0.087681 0.2559814,0.2688086 0.31575,0.5358829 0.044957,0.2008882 0.037681,2.294963 -0.021437,6.1698498 l -0.021862,1.432967 0.4560513,0 0.4560519,0 0.02301,-0.6065934 c 0.01266,-0.3336263 0.02306,-1.0747622 0.02312,-1.6469689 7e-5,-0.5722064 0.01059,-1.8017843 0.02341,-2.7323953 l 0.0233,-1.6920201 0.19648,-0.1470914 c 0.108064,-0.0809 0.294834,-0.1936567 0.415044,-0.2505699 0.205777,-0.097424 0.229678,-0.1011713 0.408493,-0.064049 0.254777,0.052891 0.542109,0.2311653 0.672673,0.417357 0.103643,0.1478008 0.107162,0.1658181 0.11677,0.5978022 0.0054,0.2449746 -0.02437,1.7870144 -0.06627,3.4267548 -0.0419,1.6397409 -0.06809,2.9894337 -0.05821,2.9993178 0.0099,0.00988 0.207669,0.027509 0.439522,0.039167 l 0.421552,0.021196 0.02198,-0.4886453 c 0.01209,-0.2687546 0.04781,-1.5646888 0.07939,-2.8798537 0.05671,-2.3621264 0.05832,-2.3919585 0.132241,-2.4528565 0.128844,-0.1061385 0.43393,-0.177798 0.649232,-0.1524936 0.498965,0.058644 0.864335,0.3689914 1.012389,0.8599303 0.04993,0.1655837 0.05938,0.3484982 0.05744,1.1124528 -0.0038,1.5140779 -0.134452,2.2458493 -0.853581,4.7824178 -0.727237,2.565169 -0.915666,3.462004 -1.002961,4.773626 l -0.02282,0.342857 -1.45025,0 c -0.797637,0 -2.6607304,0.01049 -4.1402064,0.02332 -2.5387808,0.02201 -2.6912802,0.01987 -2.7135019,-0.03804 l 0,0 z m 5.6028291,-2.974286 0,-1.336264 -0.421978,0 -0.4219781,0 0,1.336264 0,1.336264 0.4219781,0 0.421978,0 0,-1.336264 z"
       id="path3860"
       inkscape:connector-curvature="0"
       transform="translate(-0.08875373,1039.3075)" />
    <path
       style="fill:#ffffff;stroke:#ffffff;stroke-width:0.00351648000000000;stroke-miterlimit:4;stroke-opacity:1;stroke-dasharray:none;fill-opacity:1"
       d="m 4.8599799,15.386589 c -0.012949,-0.03375 -0.023545,-0.130289 -0.023545,-0.21454 0,-0.380844 -0.2047965,-0.969753 -0.5381907,-1.547611 C 3.9737925,13.06208 3.8097917,12.833314 2.4965184,11.111204 1.496677,9.8001009 1.0256603,8.9635154 0.95112853,8.3663958 0.90769794,8.0184468 1.0587237,7.698778 1.3610692,7.4986954 1.5463994,7.3760496 1.8564673,7.3634236 2.0759958,7.4695831 c 0.2583807,0.1249477 0.7168835,0.6277173 1.10825,1.2152475 0.1996901,0.2997802 0.5107065,0.7462315 0.6911476,0.9921143 0.1804412,0.2458823 0.3280749,0.4621461 0.3280749,0.4805861 0,0.05341 0.044658,0.05759 0.4916438,0.04611 L 5.117754,10.192783 5.1168678,9.7113343 C 5.1163826,9.4465375 5.1010394,7.7528095 5.0827755,5.9474943 5.0587277,3.5704944 5.060282,2.6150821 5.0884096,2.483758 5.1862822,2.0268093 5.7704759,1.8079794 6.3129888,2.0250499 c 0.1399314,0.055989 0.351015,0.2592939 0.3531397,0.3401252 6.189e-4,0.023503 0.00638,0.2405346 0.012808,0.4822929 0.00643,0.2417582 0.013833,1.7648351 0.016459,3.3846153 l 0.00478,2.945055 0.4612975,0 0.4612973,0 L 7.6113498,5.5287866 7.5999331,1.880435 7.677147,1.6488699 C 7.7802254,1.339738 7.9145663,1.163759 8.1446414,1.036479 8.3254871,0.93643325 8.3562236,0.93098446 8.739732,0.93098446 c 0.3446991,0 0.422561,0.0106713 0.5274528,0.0722892 0.1492582,0.087681 0.2559814,0.2688086 0.31575,0.5358829 0.044957,0.2008882 0.037681,2.294963 -0.021437,6.1698498 l -0.021862,1.432967 0.4560513,0 0.4560519,0 0.02301,-0.6065934 c 0.01266,-0.3336263 0.02306,-1.0747622 0.02312,-1.6469689 7e-5,-0.5722064 0.01059,-1.8017843 0.02341,-2.7323953 l 0.0233,-1.6920201 0.19648,-0.1470914 c 0.108064,-0.0809 0.294834,-0.1936567 0.415044,-0.2505699 0.205777,-0.097424 0.229678,-0.1011713 0.408493,-0.064049 0.254777,0.052891 0.542109,0.2311653 0.672673,0.417357 0.103643,0.1478008 0.107162,0.1658181 0.11677,0.5978022 0.0054,0.2449746 -0.02437,1.7870144 -0.06627,3.4267548 -0.0419,1.6397409 -0.06809,2.9894337 -0.05821,2.9993178 0.0099,0.00988 0.207669,0.027509 0.439522,0.039167 l 0.421552,0.021196 0.02198,-0.4886453 c 0.01209,-0.2687546 0.04781,-1.5646888 0.07939,-2.8798537 0.05671,-2.3621264 0.05832,-2.3919585 0.132241,-2.4528565 0.128844,-0.1061385 0.43393,-0.177798 0.649232,-0.1524936 0.498965,0.058644 0.864335,0.3689914 1.012389,0.8599303 0.04993,0.1655837 0.05938,0.3484982 0.05744,1.1124528 -0.0038,1.5140779 -0.134452,2.2458493 -0.853581,4.7824178 -0.727237,2.565169 -0.915666,3.462004 -1.002961,4.773626 l -0.02282,0.342857 -1.45025,0 c -0.797637,0 -2.6607304,0.01049 -4.1402064,0.02332 -2.5387808,0.02201 -2.6912802,0.01987 -2.7135019,-0.03804 l 0,0 z m 5.6028291,-2.974286 0,-1.336264 -0.421978,0 -0.4219781,0 0,1.336264 0,1.336264 0.4219781,0 0.421978,0 0,-1.336264 z"
       id="path3862"
       inkscape:connector-curvature="0"
       transform="translate(-0.08875373,1039.3075)" />
  </g>
</svg>
