<?xml version="1.0" encoding="UTF-8" standalone="no"?>
<!-- Created with Inkscape (http://www.inkscape.org/) -->

<svg
   xmlns:dc="http://purl.org/dc/elements/1.1/"
   xmlns:cc="http://creativecommons.org/ns#"
   xmlns:rdf="http://www.w3.org/1999/02/22-rdf-syntax-ns#"
   xmlns:svg="http://www.w3.org/2000/svg"
   xmlns="http://www.w3.org/2000/svg"
   xmlns:sodipodi="http://sodipodi.sourceforge.net/DTD/sodipodi-0.dtd"
   xmlns:inkscape="http://www.inkscape.org/namespaces/inkscape"
   width="15.935071"
   height="15.999859"
   id="svg2"
   version="1.1"
   inkscape:version="0.48.3.1 r9886"
   sodipodi:docname="pencil.svg"
   inkscape:export-filename="/home/giuseppe/Immagini/Ardesia/pencil32.png"
   inkscape:export-xdpi="30.01"
   inkscape:export-ydpi="30.01">
  <defs
     id="defs4" />
  <sodipodi:namedview
     id="base"
     pagecolor="#ffffff"
     bordercolor="#666666"
     borderopacity="1.0"
     inkscape:pageopacity="0.0"
     inkscape:pageshadow="2"
     inkscape:zoom="1.4"
     inkscape:cx="55.023751"
     inkscape:cy="20.570266"
     inkscape:document-units="px"
     inkscape:current-layer="layer1"
     showgrid="false"
     inkscape:window-width="1366"
     inkscape:window-height="722"
     inkscape:window-x="0"
     inkscape:window-y="0"
     inkscape:window-maximized="1"
     fit-margin-top="0"
     fit-margin-left="0"
     fit-margin-right="0"
     fit-margin-bottom="0" />
  <metadata
     id="metadata7">
    <rdf:RDF>
      <cc:Work
         rdf:about="">
        <dc:format>image/svg+xml</dc:format>
        <dc:type
           rdf:resource="http://purl.org/dc/dcmitype/StillImage" />
        <dc:title />
      </cc:Work>
    </rdf:RDF>
  </metadata>
  <g
     inkscape:label="Livello 1"
     inkscape:groupmode="layer"
     id="layer1"
     transform="translate(-1.1296461,-1036.3579)">
    <path
       style="fill:#4d4d4d;fill-opacity:1;stroke:none"
       id="path3852"
       d="m 16.638308,1052.0927 c -0.104858,-0.076 -0.206329,-0.1529 -0.305835,-0.2321 -0.07759,-0.06 -0.162784,-0.1145 -0.247848,-0.1687 -0.213956,-0.1274 -0.466992,-0.2163 -0.701158,-0.3175 -0.160579,-0.07 0.321695,0.138 0.482543,0.2071 -0.266636,-0.1285 -0.44787,-0.2497 -0.735881,-0.2636 -0.08044,0 -0.160997,0 -0.241493,0 -0.115569,0 -0.231147,0 -0.346723,0 -0.171256,0.015 -0.343279,0.022 -0.515517,0.027 -0.127985,0 -0.253228,0 -0.379156,0.02 -0.06774,0.02 -0.137537,0.036 -0.199911,0.064 -0.06377,0.026 -0.134272,0.039 -0.200115,0.062 -0.102416,0.036 -0.202069,0.078 -0.302958,0.1163 -0.135539,0.056 -0.276122,0.1039 -0.412539,0.1586 -0.100278,0.039 -0.211334,0.055 -0.318331,0.08 -0.07224,0.016 -0.147693,0.019 -0.222522,0.02 -0.07991,0 -0.159855,0 -0.239782,0 -0.10472,-0.018 -0.212226,-0.021 -0.319045,-0.025 -0.121372,-10e-5 -0.24259,-0.01 -0.360689,-0.031 -0.124568,-0.015 -0.243428,-0.046 -0.365946,-0.068 -0.108331,-0.026 -0.219146,-0.044 -0.328464,-0.067 -0.102947,-0.02 -0.205847,-0.037 -0.311535,-0.047 -0.11238,-0.013 -0.2242133,-0.025 -0.3379436,-0.031 -0.1490838,0 -0.2965154,-0.01 -0.4443855,-0.023 -0.1091901,-0.011 -0.2190842,-0.014 -0.3290741,-0.014 -0.1789652,0 -0.3579262,0 -0.5368912,0 -0.1270693,0 -0.2547225,-0.01 -0.3812144,0 -0.1078354,0.01 -0.2154212,0.023 -0.3183254,0.049 -0.1306674,0.028 -0.2607936,0.055 -0.3886976,0.089 -0.1615711,0.031 -0.3118323,0.083 -0.4592804,0.1402 -0.1335443,0.058 -0.2700509,0.1119 -0.4113603,0.1586 -0.093587,0.031 -0.1934622,0.042 -0.2946968,0.045 -0.092677,0 -0.1829649,-0.016 -0.2709886,-0.035 -0.079741,-0.027 -0.164617,-0.044 -0.2480201,-0.063 -0.1017759,-0.026 -0.2063978,-0.038 -0.3129478,-0.046 -0.1104692,-0.015 -0.2206992,-0.026 -0.3296244,-0.046 -0.096197,-0.012 -0.1898216,-0.031 -0.2860733,-0.043 -0.085501,-0.01 -0.1719753,-0.011 -0.2581909,-0.011 -0.095134,0 -0.1881833,-0.013 -0.2827999,-0.019 -0.1413611,-0.01 -0.283317,-0.01 -0.425016,-0.01 -0.1154051,0 -0.2308149,0 -0.3462252,0 -0.083789,-1e-4 -0.1675774,-1e-4 -0.2513661,-1e-4 -0.081106,0 -0.1622117,0 -0.2433175,0 -0.084263,-0.01 -0.164785,0.1062 -0.247176,0.1166 -0.080069,0.01 -0.1324035,0.012 -0.2133455,0.013 -0.081296,0 -0.1337934,0.03 -0.2150956,0.03 -0.081492,0 -0.1485781,-0.043 -0.2300702,-0.043 -0.082292,0.1017 -0.093302,0.237 -0.2609647,0.063 -0.1512723,0.1054 -0.1962161,0.11 -0.2723872,0.1254 l -0.019407,0.2413 0.4609848,0.043 c 0.073035,-0.016 0.3053103,-0.086 0.3813384,-0.092 0.080717,0 0.1760021,0.056 0.1847661,-0.016 0.1247081,0.072 0.1773872,-0.086 0.2588781,-0.086 0.081685,0 0.091364,-0.1 0.1730186,-0.1015 0.08267,0 0.1653031,-0.01 0.2468051,-0.018 0.080194,-0.01 0.1600614,-0.014 0.2414245,-0.011 0.081114,0 0.1622282,0 0.2433424,0 0.083521,-10e-5 0.167041,-10e-5 0.2505607,0 0.1139045,0 0.2278116,0 0.3417167,0 0.1415007,0 0.2832646,0 0.4241274,0.014 0.095867,0.01 0.1912724,0.021 0.2882466,0.018 0.084261,0 0.1687269,0 0.2517438,0.016 0.094891,0.014 0.18907,0.031 0.2839604,0.045 0.1096484,0.018 0.2212977,0.028 0.3319676,0.042 0.1052286,0.011 0.2077434,0.029 0.3083737,0.054 0.083204,0.021 0.1668226,0.04 0.2492185,0.062 0.092207,0.018 0.1872954,0.029 0.2827843,0.023 0.1055424,-0.01 0.208033,-0.025 0.303915,-0.06 0.1398626,-0.05 0.2765727,-0.1039 0.411392,-0.161 0.1460635,-0.055 0.2954296,-0.1034 0.4540828,-0.1352 0.1294333,-0.032 0.26133,-0.057 0.3925028,-0.085 0.1011674,-0.021 0.2037821,-0.037 0.3087587,-0.042 0.1251744,0 0.2505633,0 0.3758389,0 0.179636,0 0.359313,0 0.5389064,0 0.1086715,0 0.217177,0.01 0.3252053,0.017 0.1482137,0.012 0.2965447,0.016 0.4452907,0.021 0.113464,0.01 0.225099,0.023 0.338092,0.034 0.103947,0.012 0.20555,0.032 0.307235,0.052 0.108557,0.022 0.218755,0.04 0.326563,0.064 0.122506,0.024 0.244125,0.051 0.369187,0.067 0.12062,0.016 0.242079,0.023 0.364499,0.025 0.108747,0.01 0.216174,0.018 0.324534,0.025 0.08058,10e-5 0.161215,0 0.24174,0 0.07841,0 0.15658,-0.011 0.231121,-0.03 0.108391,-0.026 0.220227,-0.046 0.320074,-0.089 0.136029,-0.055 0.275832,-0.1033 0.411909,-0.1576 0.101303,-0.038 0.201043,-0.079 0.305243,-0.1116 0.06892,-0.02 0.140602,-0.036 0.204388,-0.065 0.0598,-0.022 0.12289,-0.04 0.187379,-0.052 0.121628,-0.015 0.244154,-0.016 0.367269,-0.019 0.172893,-0.01 0.345457,-0.014 0.518085,-0.023 0.116828,0 0.233657,0 0.350485,0 0.07939,0 0.159032,0 0.238097,0.01 0.231593,0.025 0.582923,0.2256 -0.313229,-0.1684 0.439373,0.1896 0.970949,0.4198 0.07415,0.03 -0.013,-0.01 0.02624,0.011 0.03874,0.017 0.03698,0.019 0.07086,0.041 0.110155,0.057 0.08651,0.054 0.172365,0.1077 0.253992,0.1653 0.10107,0.077 0.197397,0.1566 0.300882,0.2315 l 0.55805,0.1728 z"
       inkscape:connector-curvature="0"
       sodipodi:nodetypes="cccccccccccccccccccccccccccccccccccccccccccccccccccccccccccccccccccccccccccccccccccccccccccccccccccccc" />
    <path
       style="fill:#decd87;stroke:#000000;stroke-width:0.80231684;stroke-linecap:butt;stroke-linejoin:miter;stroke-miterlimit:4;stroke-opacity:1;stroke-dasharray:none"
       d="m 1.5308045,1051.8201 6.7130911,-1.8238 -4.9267749,-4.7306 z"
       id="path3078"
       inkscape:connector-curvature="0"
       sodipodi:nodetypes="cccc" />
    <path
       style="fill:#c8ab37;stroke:#000000;stroke-width:0.80231684;stroke-linecap:butt;stroke-linejoin:miter;stroke-miterlimit:4;stroke-opacity:1;stroke-dasharray:none"
       d="m 3.2914356,1045.2143 8.4387004,-8.4552 3.680493,1.6739 1.222371,3.063 -8.4203751,8.5182 z"
       id="path2996"
       inkscape:connector-curvature="0"
       sodipodi:nodetypes="cccccc" />
    <path
       style="fill:#000000;stroke:#000000;stroke-width:0.80231684;stroke-linecap:butt;stroke-linejoin:miter;stroke-miterlimit:4;stroke-opacity:1;stroke-dasharray:none"
       d="m 1.6487744,1051.7729 0.4604366,-2.1225 1.6074068,1.4677 z"
       id="path2998"
       inkscape:connector-curvature="0"
       sodipodi:nodetypes="cccc" />
    <path
       style="fill:#ff0000;stroke:#000000;stroke-width:0.80231684;stroke-linecap:butt;stroke-linejoin:miter;stroke-miterlimit:4;stroke-opacity:1;stroke-dasharray:none"
       d="m 16.663559,1041.5043 -1.041486,1.0668 -5.034565,-4.6561 1.176683,-1.1511 c 1.045806,0.094 2.79892,0.7658 3.687184,1.6691 0.888265,0.9034 1.103529,1.8891 1.212184,3.0713 z"
       id="path3000"
       inkscape:connector-curvature="0"
       sodipodi:nodetypes="cccczc" />
    <rect
       style="fill:#aa8800;fill-opacity:1;stroke:none"
       id="rect3004-3"
       width="8.965519"
       height="1.4183958"
       x="745.1568"
       y="746.87256"
       transform="matrix(-0.71136535,0.70282241,0.72403438,0.68976389,0,0)"
       ry="0.69882172" />
    <rect
       style="fill:#aa8800;fill-opacity:1;stroke:none"
       id="rect3004-3-1"
       width="8.965519"
       height="1.4183958"
       x="745.0484"
       y="750.84827"
       transform="matrix(-0.71136535,0.70282241,0.72403438,0.68976389,0,0)"
       ry="0.69882172" />
    <rect
       style="fill:#aa8800;fill-opacity:1;stroke:none"
       id="rect3004-3-2"
       width="8.965519"
       height="1.4183958"
       x="745.18054"
       y="748.86639"
       transform="matrix(-0.71136535,0.70282241,0.72403438,0.68976389,0,0)"
       ry="0.69882172" />
  </g>
</svg>
