/* XPM */
static const char * paint_cursor_xpm[] = {
"32 34 2 1",
" 	c None",
".	c #000000",
"                                ",
"                                ",
"                           .....",
"                          ......",
"                         .......",
"                        ........",
"                       .........",
"                      ......... ",
"                     .........  ",
"                    .........   ",
"                   .........    ",
"                  .........     ",
"                 .........      ",
"                .........       ",
"               .........        ",
"              .........         ",
"             .........          ",
"            .........           ",
"           .........            ",
"          .........             ",
"         .........              ",
"        .........               ",
"       .........                ",
"      .........                 ",
"     .........                  ",
"    .........                   ",
"   .........                    ",
"  .........                     ",
" .........                      ",
".........                       ",
"........                        ",
".......                         ",
"......                          ",
".....                           "};
