/* XPM */
const char *paint_cursor_xpm[] = {
/* columns rows colors chars-per-pixel */
"31 31 2 1",
"  c none",
". c #000000",
/* pixels */
"              .                ",
"              .                ",
"              .                ",
"              .                ",
"              .                ",
"              .                ",
"              .                ",
"              .                ",
"              .                ",
"                               ",
"                               ",
"                               ",
"                               ",
"                               ",
".........           .........  ",
"                               ",
"                               ",
"                               ",
"                               ",
"                               ",
"              .                ",
"              .                ",
"              .                ",
"              .                ",
"              .                ",
"              .                ",
"              .                ",
"              .                ",
"              .                ",
"                               ",
"                               "
};
